<svg xmlns="http://www.w3.org/2000/svg" viewBox="0 0 960 560" width="960" height="560">
  <style>
    .f { font-family: -apple-system, BlinkMacSystemFont, 'Inter', 'Segoe UI', 'Helvetica Neue', Arial, sans-serif; }
    .title { fill: #1f1f1d; font-weight: 600; }
    .body { fill: #3d3929; font-weight: 500; }
    .sub { fill: #7a7468; font-weight: 400; }
    .label { fill: #94897a; font-weight: 600; letter-spacing: 0.12em; }
    .mono { font-family: 'SF Mono', 'Menlo', 'Consolas', monospace; }
  </style>

  <defs>
    <filter id="soft" x="-20%" y="-20%" width="140%" height="140%">
      <feDropShadow dx="0" dy="2" stdDeviation="4" flood-color="#1f1f1d" flood-opacity="0.06"/>
    </filter>
    <filter id="soft-strong" x="-20%" y="-20%" width="140%" height="140%">
      <feDropShadow dx="0" dy="4" stdDeviation="8" flood-color="#c15f3c" flood-opacity="0.10"/>
    </filter>

    <linearGradient id="agent-grad" x1="0" y1="0" x2="0" y2="1">
      <stop offset="0" stop-color="#ffffff"/>
      <stop offset="1" stop-color="#fdf6f0"/>
    </linearGradient>

    <marker id="arr-accent" viewBox="0 0 10 10" refX="9" refY="5" markerWidth="7" markerHeight="7" orient="auto">
      <path d="M 0 1 L 9 5 L 0 9 z" fill="#c15f3c"/>
    </marker>
    <marker id="arr-muted" viewBox="0 0 10 10" refX="9" refY="5" markerWidth="7" markerHeight="7" orient="auto">
      <path d="M 0 1 L 9 5 L 0 9 z" fill="#9b9689"/>
    </marker>
  </defs>

  <!-- Canvas -->
  <rect width="960" height="560" fill="#faf9f5"/>

  <!-- ============ LLM (top center) ============ -->
  <g filter="url(#soft)">
    <rect x="360" y="52" width="240" height="112" rx="16" fill="#ffffff" stroke="#e8e6dc" stroke-width="1"/>
  </g>
  <circle cx="388" cy="84" r="6" fill="#d97757"/>
  <text x="402" y="89" class="f label" font-size="10">MODEL</text>
  <text x="480" y="118" text-anchor="middle" class="f title" font-size="20">LLM</text>
  <text x="480" y="142" text-anchor="middle" class="f sub" font-size="12">reasons · plans · picks tools</text>

  <!-- ============ Agent (center, primary) ============ -->
  <g filter="url(#soft-strong)">
    <rect x="340" y="228" width="280" height="136" rx="18" fill="url(#agent-grad)" stroke="#d97757" stroke-width="1.5"/>
  </g>
  <circle cx="370" cy="260" r="6" fill="#d97757"/>
  <text x="384" y="265" class="f label" font-size="10" fill="#c15f3c">AGENT · YOUR LOOP</text>
  <text x="480" y="298" text-anchor="middle" class="f title" font-size="22">Your Agent</text>
  <line x1="410" y1="314" x2="550" y2="314" stroke="#f0e5d8" stroke-width="1"/>
  <text x="480" y="336" text-anchor="middle" class="f mono body" font-size="11">while !done: call &#8594; execute</text>
  <text x="480" y="354" text-anchor="middle" class="f sub" font-size="11">match on StopReason</text>

  <!-- ============ User (left) ============ -->
  <g filter="url(#soft)">
    <rect x="48" y="246" width="196" height="100" rx="16" fill="#ffffff" stroke="#e8e6dc" stroke-width="1"/>
  </g>
  <circle cx="76" cy="278" r="6" fill="#d97757"/>
  <text x="90" y="283" class="f label" font-size="10">USER</text>
  <text x="146" y="312" text-anchor="middle" class="f title" font-size="14">&#8220;Summarize doc.pdf&#8221;</text>
  <text x="146" y="331" text-anchor="middle" class="f sub" font-size="11">— you, at the prompt</text>

  <!-- ============ Tools (right) ============ -->
  <g filter="url(#soft)">
    <rect x="716" y="76" width="196" height="428" rx="18" fill="#ffffff" stroke="#e8e6dc" stroke-width="1"/>
  </g>
  <circle cx="744" cy="108" r="6" fill="#d97757"/>
  <text x="758" y="113" class="f label" font-size="10">TOOLS</text>
  <text x="814" y="142" text-anchor="middle" class="f title" font-size="18">Capabilities</text>
  <text x="814" y="162" text-anchor="middle" class="f sub" font-size="11">what your code can do</text>

  <!-- Tool chips -->
  <g>
    <rect x="736" y="190" width="156" height="64" rx="12" fill="#faf9f5" stroke="#ece9de"/>
    <rect x="752" y="210" width="24" height="24" rx="6" fill="#f5e8dc"/>
    <text x="764" y="227" text-anchor="middle" class="f mono body" font-size="12" fill="#c15f3c">$_</text>
    <text x="790" y="218" class="f title" font-size="14">bash</text>
    <text x="790" y="236" class="f sub" font-size="10">run shell commands</text>
  </g>
  <g>
    <rect x="736" y="266" width="156" height="64" rx="12" fill="#faf9f5" stroke="#ece9de"/>
    <rect x="752" y="286" width="24" height="24" rx="6" fill="#f5e8dc"/>
    <path d="M 759 294 h 10 v 16 h -10 z M 769 294 l 4 4 v 12 h -4 z" fill="#c15f3c"/>
    <text x="790" y="294" class="f title" font-size="14">read</text>
    <text x="790" y="312" class="f sub" font-size="10">read files</text>
  </g>
  <g>
    <rect x="736" y="342" width="156" height="64" rx="12" fill="#faf9f5" stroke="#ece9de"/>
    <rect x="752" y="362" width="24" height="24" rx="6" fill="#f5e8dc"/>
    <path d="M 759 370 h 10 v 16 h -10 z M 769 370 l 4 4 v 12 h -4 z M 762 376 h 5 M 762 380 h 5" stroke="#c15f3c" stroke-width="1" fill="#c15f3c"/>
    <text x="790" y="370" class="f title" font-size="14">write</text>
    <text x="790" y="388" class="f sub" font-size="10">create files</text>
  </g>
  <g>
    <rect x="736" y="418" width="156" height="64" rx="12" fill="#faf9f5" stroke="#ece9de"/>
    <rect x="752" y="438" width="24" height="24" rx="6" fill="#f5e8dc"/>
    <path d="M 758 454 l 8 -8 l 4 4 l -8 8 z M 768 444 l 2 -2 l 4 4 l -2 2 z" fill="#c15f3c"/>
    <text x="790" y="446" class="f title" font-size="14">edit</text>
    <text x="790" y="464" class="f sub" font-size="10">find &amp; replace</text>
  </g>

  <!-- ============ Arrows ============ -->

  <!-- User → Agent (request) -->
  <line x1="248" y1="284" x2="336" y2="284" stroke="#c15f3c" stroke-width="2" marker-end="url(#arr-accent)"/>
  <rect x="260" y="270" width="64" height="18" rx="9" fill="#faf9f5"/>
  <text x="292" y="283" text-anchor="middle" class="f sub" font-size="11">request</text>

  <!-- Agent → User (answer) -->
  <line x1="336" y1="316" x2="248" y2="316" stroke="#9b9689" stroke-width="1.5" marker-end="url(#arr-muted)"/>
  <rect x="260" y="321" width="64" height="18" rx="9" fill="#faf9f5"/>
  <text x="292" y="334" text-anchor="middle" class="f sub" font-size="11">answer</text>

  <!-- Agent → LLM (prompt + tools) -->
  <line x1="436" y1="228" x2="436" y2="168" stroke="#c15f3c" stroke-width="2" marker-end="url(#arr-accent)"/>
  <text x="426" y="200" text-anchor="end" class="f sub" font-size="11">prompt + tools</text>

  <!-- LLM → Agent (tool_call) -->
  <line x1="524" y1="168" x2="524" y2="224" stroke="#9b9689" stroke-width="1.5" marker-end="url(#arr-muted)"/>
  <text x="534" y="200" text-anchor="start" class="f sub" font-size="11">tool_call</text>

  <!-- Agent → Tools (execute) -->
  <line x1="624" y1="284" x2="712" y2="284" stroke="#c15f3c" stroke-width="2" marker-end="url(#arr-accent)"/>
  <rect x="636" y="270" width="64" height="18" rx="9" fill="#faf9f5"/>
  <text x="668" y="283" text-anchor="middle" class="f sub" font-size="11">execute</text>

  <!-- Tools → Agent (result) -->
  <line x1="712" y1="316" x2="624" y2="316" stroke="#9b9689" stroke-width="1.5" marker-end="url(#arr-muted)"/>
  <rect x="636" y="321" width="64" height="18" rx="9" fill="#faf9f5"/>
  <text x="668" y="334" text-anchor="middle" class="f sub" font-size="11">result</text>

  <!-- ============ Legend (bottom-left) ============ -->
  <g transform="translate(48, 492)">
    <line x1="0" y1="8" x2="28" y2="8" stroke="#c15f3c" stroke-width="2" marker-end="url(#arr-accent)"/>
    <text x="38" y="12" class="f sub" font-size="11">primary flow</text>
    <line x1="148" y1="8" x2="176" y2="8" stroke="#9b9689" stroke-width="1.5" marker-end="url(#arr-muted)"/>
    <text x="186" y="12" class="f sub" font-size="11">return path</text>
  </g>

  <!-- Subtle footer tag -->
  <text x="912" y="540" text-anchor="end" class="f label" font-size="9" fill="#b8aea0">MINI · CLAW · CODE</text>
</svg>
